<svg xmlns="http://www.w3.org/2000/svg" xmlns:xlink="http://www.w3.org/1999/xlink" width="100" zoomAndPan="magnify" viewBox="0 0 150 37.5" height="30" preserveAspectRatio="xMidYMid meet" version="1.0"><defs><g/></defs><g fill="#08104d" fill-opacity="1"><g transform="translate(2.484751, 35.600336)"><g><path d="M 22.234375 -10 C 22.285156 -9.914062 22.742188 -9.1875 23.609375 -7.8125 C 24.640625 -6.15625 25.472656 -4.972656 26.109375 -4.265625 C 26.753906 -3.566406 27.550781 -3.160156 28.5 -3.046875 L 28.5 -1.328125 C 28.007812 -0.671875 27.4375 -0.1875 26.78125 0.125 C 26.125 0.4375 25.253906 0.59375 24.171875 0.59375 C 22.679688 0.59375 21.457031 0.28125 20.5 -0.34375 C 19.539062 -0.96875 18.835938 -1.640625 18.390625 -2.359375 C 17.953125 -3.078125 17.359375 -4.179688 16.609375 -5.671875 C 15.578125 -7.722656 14.609375 -9.460938 13.703125 -10.890625 C 12.804688 -12.328125 11.882812 -13.25 10.9375 -13.65625 L 10.9375 -4.890625 C 10.9375 -4.085938 11.128906 -3.53125 11.515625 -3.21875 C 11.910156 -2.90625 12.578125 -2.75 13.515625 -2.75 C 13.515625 -2.226562 13.425781 -1.722656 13.25 -1.234375 C 13.082031 -0.753906 12.859375 -0.34375 12.578125 0 L 2.0625 0 C 1.769531 -0.34375 1.535156 -0.753906 1.359375 -1.234375 C 1.191406 -1.722656 1.109375 -2.226562 1.109375 -2.75 C 2.054688 -2.75 2.722656 -2.90625 3.109375 -3.21875 C 3.492188 -3.53125 3.6875 -4.085938 3.6875 -4.890625 L 3.6875 -25.0625 C 3.6875 -25.863281 3.492188 -26.425781 3.109375 -26.75 C 2.722656 -27.082031 2.054688 -27.25 1.109375 -27.25 C 1.109375 -27.738281 1.191406 -28.222656 1.359375 -28.703125 C 1.535156 -29.191406 1.769531 -29.609375 2.0625 -29.953125 L 12.578125 -29.953125 C 12.859375 -29.609375 13.082031 -29.191406 13.25 -28.703125 C 13.425781 -28.222656 13.515625 -27.738281 13.515625 -27.25 C 12.578125 -27.25 11.910156 -27.082031 11.515625 -26.75 C 11.128906 -26.425781 10.9375 -25.863281 10.9375 -25.0625 L 10.9375 -16.5625 C 11.601562 -16.5625 12.132812 -16.535156 12.53125 -16.484375 L 18.578125 -24.515625 C 18.953125 -24.960938 19.140625 -25.472656 19.140625 -26.046875 C 19.140625 -26.390625 18.875 -26.675781 18.34375 -26.90625 C 17.820312 -27.132812 17.257812 -27.25 16.65625 -27.25 C 16.65625 -27.707031 16.738281 -28.179688 16.90625 -28.671875 C 17.082031 -29.160156 17.328125 -29.585938 17.640625 -29.953125 L 27.640625 -29.953125 C 27.929688 -29.585938 28.160156 -29.160156 28.328125 -28.671875 C 28.492188 -28.179688 28.578125 -27.707031 28.578125 -27.25 C 26.773438 -27.25 25.347656 -26.5625 24.296875 -25.1875 L 16.1875 -15.578125 C 17.5 -14.972656 18.601562 -14.242188 19.5 -13.390625 C 20.40625 -12.535156 21.316406 -11.40625 22.234375 -10 Z M 22.234375 -10 "/></g></g></g><g fill="#08104d" fill-opacity="1"><g transform="translate(31.023928, 35.600336)"><g><path d="M 3.609375 -27.46875 C 3.609375 -28.1875 3.398438 -28.722656 2.984375 -29.078125 C 2.566406 -29.429688 1.800781 -29.609375 0.6875 -29.609375 L 0.6875 -31.328125 C 1.71875 -31.898438 3.019531 -32.382812 4.59375 -32.78125 C 6.164062 -33.1875 7.4375 -33.390625 8.40625 -33.390625 C 9.09375 -33.390625 9.578125 -33.242188 9.859375 -32.953125 C 10.148438 -32.671875 10.296875 -32.175781 10.296875 -31.46875 L 10.296875 -4.671875 C 10.296875 -3.785156 10.472656 -3.171875 10.828125 -2.828125 C 11.191406 -2.484375 11.800781 -2.3125 12.65625 -2.3125 C 12.65625 -1.507812 12.3125 -0.738281 11.625 0 L 2.234375 0 C 1.578125 -0.71875 1.25 -1.488281 1.25 -2.3125 C 2.070312 -2.3125 2.671875 -2.488281 3.046875 -2.84375 C 3.421875 -3.207031 3.609375 -3.816406 3.609375 -4.671875 Z M 3.609375 -27.46875 "/></g></g></g><g fill="#08104d" fill-opacity="1"><g transform="translate(44.714148, 35.600336)"><g><path d="M 13.734375 -4.375 C 15.535156 -4.375 17.207031 -4.945312 18.75 -6.09375 C 18.976562 -5.863281 19.175781 -5.519531 19.34375 -5.0625 C 19.519531 -4.601562 19.609375 -4.203125 19.609375 -3.859375 C 19.609375 -3.347656 19.265625 -2.753906 18.578125 -2.078125 C 17.898438 -1.410156 16.953125 -0.832031 15.734375 -0.34375 C 14.515625 0.144531 13.144531 0.390625 11.625 0.390625 C 9.507812 0.390625 7.65625 -0.0664062 6.0625 -0.984375 C 4.476562 -1.898438 3.253906 -3.226562 2.390625 -4.96875 C 1.535156 -6.71875 1.109375 -8.78125 1.109375 -11.15625 C 1.109375 -13.59375 1.570312 -15.722656 2.5 -17.546875 C 3.4375 -19.378906 4.71875 -20.789062 6.34375 -21.78125 C 7.976562 -22.769531 9.828125 -23.265625 11.890625 -23.265625 C 14.492188 -23.265625 16.566406 -22.503906 18.109375 -20.984375 C 19.660156 -19.472656 20.4375 -17.367188 20.4375 -14.671875 C 20.4375 -13.421875 20.234375 -12.429688 19.828125 -11.703125 C 19.429688 -10.972656 18.71875 -10.609375 17.6875 -10.609375 L 8.40625 -10.609375 C 8.582031 -6.453125 10.359375 -4.375 13.734375 -4.375 Z M 11.625 -20.296875 C 10.738281 -20.296875 9.992188 -19.800781 9.390625 -18.8125 C 8.796875 -17.832031 8.46875 -16.179688 8.40625 -13.859375 L 12.75 -13.859375 C 13.207031 -13.859375 13.503906 -14.015625 13.640625 -14.328125 C 13.785156 -14.648438 13.859375 -15.140625 13.859375 -15.796875 C 13.859375 -17.484375 13.65625 -18.65625 13.25 -19.3125 C 12.851562 -19.96875 12.3125 -20.296875 11.625 -20.296875 Z M 11.625 -20.296875 "/></g></g></g><g fill="#08104d" fill-opacity="1"><g transform="translate(66.258, 35.600336)"><g><path d="M 21.96875 -5.015625 C 21.96875 -4.328125 22.144531 -3.753906 22.5 -3.296875 C 22.863281 -2.847656 23.375 -2.59375 24.03125 -2.53125 L 24.03125 -1.328125 C 23.570312 -0.816406 22.863281 -0.414062 21.90625 -0.125 C 20.945312 0.15625 19.984375 0.296875 19.015625 0.296875 C 18.046875 0.296875 17.21875 0.0390625 16.53125 -0.46875 C 15.84375 -0.988281 15.382812 -1.707031 15.15625 -2.625 C 13.78125 -0.675781 11.816406 0.296875 9.265625 0.296875 C 7.265625 0.296875 5.707031 -0.316406 4.59375 -1.546875 C 3.476562 -2.773438 2.921875 -4.4375 2.921875 -6.53125 L 2.921875 -18.328125 C 2.921875 -18.816406 2.738281 -19.160156 2.375 -19.359375 C 2.019531 -19.554688 1.5 -19.65625 0.8125 -19.65625 L 0.8125 -21.546875 C 1.238281 -21.890625 2.0625 -22.234375 3.28125 -22.578125 C 4.5 -22.921875 5.796875 -23.09375 7.171875 -23.09375 C 7.972656 -23.09375 8.554688 -23.039062 8.921875 -22.9375 C 9.296875 -22.84375 9.554688 -22.632812 9.703125 -22.3125 C 9.847656 -22 9.921875 -21.5 9.921875 -20.8125 L 9.921875 -6.390625 C 9.921875 -5.503906 10.066406 -4.835938 10.359375 -4.390625 C 10.660156 -3.953125 11.15625 -3.734375 11.84375 -3.734375 C 12.414062 -3.734375 12.976562 -3.910156 13.53125 -4.265625 C 14.09375 -4.628906 14.578125 -5.066406 14.984375 -5.578125 L 14.984375 -18.328125 C 14.984375 -19.210938 14.179688 -19.65625 12.578125 -19.65625 L 12.578125 -21.546875 C 13.035156 -21.921875 13.867188 -22.269531 15.078125 -22.59375 C 16.296875 -22.925781 17.632812 -23.09375 19.09375 -23.09375 C 20.269531 -23.09375 21.039062 -22.957031 21.40625 -22.6875 C 21.78125 -22.414062 21.96875 -21.789062 21.96875 -20.8125 Z M 21.96875 -5.015625 "/></g></g></g><g fill="#08104d" fill-opacity="1"><g transform="translate(90.805982, 35.600336)"><g><path d="M 10.171875 -4.640625 C 10.171875 -3.804688 10.378906 -3.207031 10.796875 -2.84375 C 11.210938 -2.488281 11.847656 -2.3125 12.703125 -2.3125 C 12.703125 -1.425781 12.375 -0.65625 11.71875 0 L 2.015625 0 C 1.359375 -0.65625 1.03125 -1.425781 1.03125 -2.3125 C 1.882812 -2.3125 2.503906 -2.488281 2.890625 -2.84375 C 3.285156 -3.207031 3.484375 -3.816406 3.484375 -4.671875 L 3.484375 -17.125 C 3.484375 -17.925781 3.285156 -18.5 2.890625 -18.84375 C 2.503906 -19.1875 1.753906 -19.359375 0.640625 -19.359375 L 0.640625 -21.25 C 1.328125 -21.675781 2.492188 -22.125 4.140625 -22.59375 C 5.785156 -23.070312 7.179688 -23.3125 8.328125 -23.3125 C 8.984375 -23.3125 9.453125 -23.160156 9.734375 -22.859375 C 10.023438 -22.554688 10.171875 -22.046875 10.171875 -21.328125 Z M 10.296875 -30.34375 C 10.296875 -29.113281 9.921875 -28.132812 9.171875 -27.40625 C 8.429688 -26.675781 7.445312 -26.3125 6.21875 -26.3125 C 4.988281 -26.3125 4 -26.675781 3.25 -27.40625 C 2.507812 -28.132812 2.140625 -29.113281 2.140625 -30.34375 C 2.140625 -31.539062 2.507812 -32.507812 3.25 -33.25 C 4 -34 4.988281 -34.375 6.21875 -34.375 C 7.445312 -34.375 8.429688 -34 9.171875 -33.25 C 9.921875 -32.507812 10.296875 -31.539062 10.296875 -30.34375 Z M 10.296875 -30.34375 "/></g></g></g><g fill="#08104d" fill-opacity="1"><g transform="translate(104.195795, 35.600336)"><g><path d="M 11.421875 -2.921875 C 12.816406 -2.921875 13.914062 -3.132812 14.71875 -3.5625 C 15.519531 -3.988281 16.128906 -4.582031 16.546875 -5.34375 C 16.960938 -6.101562 17.328125 -7.125 17.640625 -8.40625 L 20.859375 -8.40625 L 20.859375 -6.90625 C 20.859375 -5.445312 20.785156 -4.148438 20.640625 -3.015625 C 20.503906 -1.890625 20.207031 -0.882812 19.75 0 L 1.546875 0 L 0.34375 -1.625 L 10.984375 -17.59375 L 13.046875 -19.875 L 9.4375 -19.875 C 8.09375 -19.875 7.117188 -19.5 6.515625 -18.75 C 5.921875 -18.007812 5.625 -16.78125 5.625 -15.0625 L 2.1875 -15.0625 C 1.875 -15.945312 1.679688 -16.910156 1.609375 -17.953125 C 1.535156 -19.003906 1.484375 -20.601562 1.453125 -22.75 L 19.703125 -22.75 L 20.984375 -20.984375 L 11.15625 -5.625 L 8.578125 -2.921875 Z M 11.421875 -2.921875 "/></g></g></g><g fill="#08104d" fill-opacity="1"><g transform="translate(125.954235, 35.600336)"><g><path d="M 13.734375 -4.375 C 15.535156 -4.375 17.207031 -4.945312 18.75 -6.09375 C 18.976562 -5.863281 19.175781 -5.519531 19.34375 -5.0625 C 19.519531 -4.601562 19.609375 -4.203125 19.609375 -3.859375 C 19.609375 -3.347656 19.265625 -2.753906 18.578125 -2.078125 C 17.898438 -1.410156 16.953125 -0.832031 15.734375 -0.34375 C 14.515625 0.144531 13.144531 0.390625 11.625 0.390625 C 9.507812 0.390625 7.65625 -0.0664062 6.0625 -0.984375 C 4.476562 -1.898438 3.253906 -3.226562 2.390625 -4.96875 C 1.535156 -6.71875 1.109375 -8.78125 1.109375 -11.15625 C 1.109375 -13.59375 1.570312 -15.722656 2.5 -17.546875 C 3.4375 -19.378906 4.71875 -20.789062 6.34375 -21.78125 C 7.976562 -22.769531 9.828125 -23.265625 11.890625 -23.265625 C 14.492188 -23.265625 16.566406 -22.503906 18.109375 -20.984375 C 19.660156 -19.472656 20.4375 -17.367188 20.4375 -14.671875 C 20.4375 -13.421875 20.234375 -12.429688 19.828125 -11.703125 C 19.429688 -10.972656 18.71875 -10.609375 17.6875 -10.609375 L 8.40625 -10.609375 C 8.582031 -6.453125 10.359375 -4.375 13.734375 -4.375 Z M 11.625 -20.296875 C 10.738281 -20.296875 9.992188 -19.800781 9.390625 -18.8125 C 8.796875 -17.832031 8.46875 -16.179688 8.40625 -13.859375 L 12.75 -13.859375 C 13.207031 -13.859375 13.503906 -14.015625 13.640625 -14.328125 C 13.785156 -14.648438 13.859375 -15.140625 13.859375 -15.796875 C 13.859375 -17.484375 13.65625 -18.65625 13.25 -19.3125 C 12.851562 -19.96875 12.3125 -20.296875 11.625 -20.296875 Z M 11.625 -20.296875 "/></g></g></g></svg>